<svg width="20" height="22" viewBox="0 0 20 22" fill="none" xmlns="http://www.w3.org/2000/svg">
<path fill-rule="evenodd" clip-rule="evenodd" d="M16.97 2.15899C16.7611 1.95005 16.5131 1.78432 16.2401 1.67124C15.9671 1.55817 15.6745 1.49997 15.379 1.49997C15.0836 1.49997 14.791 1.55817 14.518 1.67124C14.245 1.78432 13.997 1.95005 13.788 2.15899L2.84805 13.099C2.14483 13.8023 1.74981 14.7562 1.74991 15.7508C1.75 16.7454 2.14519 17.6993 2.84855 18.4025C3.5519 19.1057 4.5058 19.5007 5.5004 19.5006C6.495 19.5005 7.44883 19.1053 8.15205 18.402L15.845 10.709C15.9872 10.5765 16.1753 10.5044 16.3696 10.5078C16.5639 10.5112 16.7493 10.59 16.8867 10.7274C17.0241 10.8648 17.1028 11.0502 17.1062 11.2445C17.1096 11.4388 17.0375 11.6268 16.905 11.769L9.21205 19.462C8.7269 19.9599 8.14771 20.3564 7.50808 20.6287C6.86845 20.9009 6.18112 21.0434 5.48598 21.0479C4.79084 21.0524 4.10173 20.9188 3.45863 20.6548C2.81554 20.3909 2.23126 20.0019 1.73972 19.5103C1.24817 19.0188 0.859133 18.4345 0.595187 17.7914C0.331241 17.1483 0.19764 16.4592 0.202136 15.7641C0.206632 15.0689 0.349136 14.3816 0.621379 13.742C0.893621 13.1023 1.29018 12.5231 1.78805 12.038L12.727 1.09799C13.4304 0.394767 14.3843 -0.000246339 15.3789 -0.000152571C16.3735 -5.8803e-05 17.3273 0.395134 18.0305 1.09849C18.7338 1.80184 19.1288 2.75574 19.1287 3.75034C19.1286 4.74494 18.7334 5.69877 18.03 6.40199L7.09705 17.335L7.08905 17.343L7.08205 17.35L7.08005 17.352L7.07705 17.354C6.64941 17.7531 6.08313 17.97 5.49827 17.9587C4.91341 17.9474 4.35595 17.7087 3.94408 17.2934C3.5322 16.878 3.29829 16.3185 3.29194 15.7336C3.28559 15.1486 3.50729 14.5842 3.91005 14.16L11.72 6.34999C11.8614 6.2133 12.0508 6.13762 12.2475 6.13923C12.4441 6.14085 12.6323 6.21963 12.7714 6.35862C12.9105 6.49762 12.9895 6.68569 12.9913 6.88234C12.9931 7.07898 12.9176 7.26847 12.781 7.40999L4.97105 15.22C4.82942 15.3598 4.74912 15.5501 4.74781 15.749C4.74649 15.948 4.82428 16.1394 4.96405 16.281C5.10382 16.4226 5.29412 16.5029 5.4931 16.5042C5.69207 16.5055 5.88342 16.4278 6.02505 16.288L16.97 5.33999C17.179 5.13106 17.3447 4.88302 17.4578 4.61003C17.5709 4.33705 17.6291 4.04447 17.6291 3.74899C17.6291 3.45351 17.5709 3.16093 17.4578 2.88794C17.3447 2.61496 17.179 2.36792 16.97 2.15899Z" fill="white"/>
</svg>
